<svg width="24" height="24" viewBox="0 0 24 24" fill="none" xmlns="http://www.w3.org/2000/svg">
<path d="M3.98448 20.5882L2.80803 22.2056M2.58756 20.8087L4.20495 21.9851" stroke="black" stroke-linecap="round" stroke-linejoin="round"/>
<path d="M22.144 0.730378L20.6832 2.09646M20.7306 0.683043L22.0966 2.1438" stroke="black" stroke-linecap="round" stroke-linejoin="round"/>
<path d="M3.90821 18.5526L3.31262 18.6252C3.34465 18.8878 3.54486 19.0984 3.80547 19.1437L3.90821 18.5526ZM20.601 4.22249L20.9918 4.67774C21.1597 4.53359 21.2346 4.30872 21.1868 4.09266C21.1389 3.8766 20.9759 3.70444 20.7628 3.64473L20.601 4.22249ZM21.2033 4.21343C21.1967 3.88212 20.9228 3.6189 20.5915 3.62549C20.2602 3.63209 19.997 3.90601 20.0036 4.23732L21.2033 4.21343ZM20.9477 21.5139L20.8449 22.105C21.0215 22.1357 21.2025 22.0859 21.3384 21.9692C21.4744 21.8524 21.5511 21.6811 21.5475 21.5019L20.9477 21.5139ZM3.03505 11.3945L2.64423 10.9393C2.49201 11.0699 2.41517 11.268 2.43946 11.4672L3.03505 11.3945ZM13.8216 1.69999C13.5025 1.61059 13.1714 1.79679 13.082 2.11587C12.9926 2.43496 13.1788 2.7661 13.4979 2.8555L13.8216 1.69999ZM4.29903 19.0078L20.9918 4.67774L20.2102 3.76723L3.51739 18.0973L4.29903 19.0078ZM20.0036 4.23732L20.3478 21.5258L21.5475 21.5019L21.2033 4.21343L20.0036 4.23732ZM3.80547 19.1437L20.8449 22.105L21.0504 20.9227L4.01094 17.9614L3.80547 19.1437ZM3.42587 11.8498L14.0485 2.73064L13.2669 1.82012L2.64423 10.9393L3.42587 11.8498ZM4.50379 18.4799L3.63063 11.3219L2.43946 11.4672L3.31262 18.6252L4.50379 18.4799ZM20.7628 3.64473L13.8216 1.69999L13.4979 2.8555L20.4391 4.80024L20.7628 3.64473Z" fill="black"/>
<path d="M15.7227 7.75L20.7223 21.2501" stroke="black" stroke-width="1.2"/>
<path d="M8.13672 14.2656L20.724 21.2521" stroke="black" stroke-width="1.2"/>
<path d="M7.0673 8.29748C6.95522 7.98564 6.61156 7.8237 6.29972 7.93579C5.98788 8.04787 5.82595 8.39153 5.93803 8.70337L7.0673 8.29748ZM9.12245 14.0153L7.0673 8.29748L5.93803 8.70337L7.99318 14.4212L9.12245 14.0153Z" fill="black"/>
<path d="M15.6133 8.16406L10.4977 5.50155" stroke="black" stroke-width="1.2" stroke-linecap="round"/>
</svg>
